# Blender v2.91.2 OBJ File: ''
# www.blender.org
mtllib cyl.mtl
o Cylinder_Cylinder.002
v 0.019628 -0.988467 -0.390073
v 0.292143 -0.968445 0.390073
v 0.292143 -0.968445 -0.390073
v 0.551578 -0.882655 0.390073
v 0.477376 -0.912255 -0.390073
v 0.648088 -0.821008 -0.390073
v 0.797717 -0.698210 0.390073
v 0.797717 -0.698210 -0.390073
v 0.920516 -0.548580 0.390073
v 0.920516 -0.548580 -0.390073
v 1.011763 -0.377868 0.390073
v 1.011763 -0.377868 -0.390073
v 1.067953 -0.192636 0.390073
v 1.067953 -0.192636 -0.390073
v 1.086926 -0.000000 0.390073
v 1.086926 -0.000000 -0.390073
v 1.067953 0.192636 0.390073
v 1.067953 0.192636 -0.390073
v 1.011763 0.377868 0.390073
v 1.011763 0.377868 -0.390073
v 0.920516 0.548580 0.390073
v 0.920516 0.548580 -0.390073
v 0.797717 0.698210 0.390073
v 0.797717 0.698210 -0.390073
v 0.648088 0.821008 0.390073
v 0.648088 0.821008 -0.390073
v 0.477376 0.912255 0.390073
v 0.477376 0.912255 -0.390073
v 0.292143 0.968445 0.390073
v 0.292143 0.968445 -0.390073
v 0.099507 0.987418 0.390073
v 0.099507 0.987418 -0.390073
v -0.093128 0.968445 0.390073
v -0.093128 0.968445 -0.390073
v -0.352563 0.882655 0.390073
v -0.383238 0.866259 -0.390073
v -0.598703 0.698209 0.390073
v -0.598703 0.698209 -0.390073
v -0.721501 0.548579 0.390073
v -0.721501 0.548579 -0.390073
v -0.812748 0.377868 0.390073
v -0.812748 0.377868 -0.390073
v -0.868937 0.192635 0.390073
v -0.868937 0.192635 -0.390073
v -0.888959 -0.079882 0.390073
v -0.885550 -0.114496 -0.390073
v -0.812747 -0.377869 0.390073
v -0.812747 -0.377869 -0.390073
v -0.677993 -0.615582 0.390073
v -0.655927 -0.642469 -0.390073
v -0.449071 -0.821009 0.390073
v -0.449071 -0.821009 -0.390073
v -0.278359 -0.912256 0.390073
v -0.278359 -0.912256 -0.390073
v -0.014986 -0.985058 0.390073
vt 0.968750 0.500000
vt 0.937500 1.000000
vt 0.924683 0.500000
vt 0.875000 0.500000
vt 0.906250 1.000000
vt 0.875000 1.000000
vt 0.843750 1.000000
vt 0.843750 0.500000
vt 0.812500 1.000000
vt 0.812500 0.500000
vt 0.781250 1.000000
vt 0.781250 0.500000
vt 0.750000 1.000000
vt 0.750000 0.500000
vt 0.718750 1.000000
vt 0.718750 0.500000
vt 0.687500 1.000000
vt 0.687500 0.500000
vt 0.656250 1.000000
vt 0.656250 0.500000
vt 0.625000 1.000000
vt 0.625000 0.500000
vt 0.593750 1.000000
vt 0.593750 0.500000
vt 0.562500 1.000000
vt 0.562500 0.500000
vt 0.531250 1.000000
vt 0.531250 0.500000
vt 0.500000 1.000000
vt 0.500000 0.500000
vt 0.468750 1.000000
vt 0.468750 0.500000
vt 0.424683 0.500000
vt 0.419067 1.000000
vt 0.375000 0.500000
vt 0.375000 1.000000
vt 1.000000 1.000000
vt 0.968750 1.000000
vt 0.343750 1.000000
vt 0.343750 0.500000
vt 0.312500 1.000000
vt 0.312500 0.500000
vt 0.281250 1.000000
vt 0.281250 0.500000
vt 0.237183 0.500000
vt 0.231567 1.000000
vt 0.187500 0.500000
vt 0.187500 1.000000
vt 0.143433 0.500000
vt 0.137817 1.000000
vt 0.093750 0.500000
vt 0.093750 1.000000
vt 0.062500 1.000000
vt 0.062500 0.500000
vt 0.203178 0.014612
vt 0.485388 0.203178
vt 0.296822 0.485388
vt 0.018433 0.500000
vt 0.012817 1.000000
vt 0.796822 0.485388
vt 0.919706 0.080294
vt 0.550447 0.116663
vt 1.000000 0.500000
vt 0.068053 0.404789
vt 0.028269 0.341844
vt 0.116663 0.449553
vt 0.012720 0.277618
vt 0.014611 0.203179
vt 0.028269 0.158156
vt 0.050447 0.116663
vt 0.080294 0.080294
vt 0.133682 0.041351
vt 0.250000 0.010000
vt 0.296822 0.014612
vt 0.341844 0.028269
vt 0.383337 0.050447
vt 0.419706 0.080294
vt 0.449553 0.116663
vt 0.471731 0.158156
vt 0.490000 0.250000
vt 0.485388 0.296822
vt 0.471731 0.341844
vt 0.449553 0.383337
vt 0.419706 0.419706
vt 0.383337 0.449553
vt 0.341844 0.471731
vt 0.230796 0.488109
vt 0.158156 0.471731
vt 0.971731 0.341844
vt 0.985388 0.296822
vt 0.990000 0.250000
vt 0.985388 0.203178
vt 0.971731 0.158156
vt 0.949553 0.116663
vt 0.883337 0.050447
vt 0.841844 0.028269
vt 0.796822 0.014612
vt 0.750000 0.010000
vt 0.703178 0.014612
vt 0.641137 0.037366
vt 0.580294 0.080294
vt 0.528269 0.158156
vt 0.514611 0.203179
vt 0.511891 0.269204
vt 0.528269 0.341844
vt 0.562689 0.398254
vt 0.616663 0.449553
vt 0.658156 0.471731
vt 0.722383 0.487280
vt 0.858863 0.462634
vt 0.919706 0.419706
vt 0.949553 0.383337
vn 0.3140 -0.9494 0.0062
vn 0.6344 -0.7730 0.0000
vn 0.4714 -0.8819 -0.0114
vn 0.7730 -0.6344 0.0000
vn 0.8819 -0.4714 -0.0000
vn 0.9569 -0.2903 -0.0000
vn 0.9952 -0.0980 -0.0000
vn 0.9952 0.0980 0.0000
vn 0.9569 0.2903 0.0000
vn 0.8819 0.4714 0.0000
vn 0.7730 0.6344 0.0000
vn 0.6344 0.7730 0.0000
vn 0.4714 0.8819 0.0000
vn 0.2903 0.9569 0.0000
vn 0.0980 0.9952 0.0000
vn -0.0980 0.9952 0.0000
vn -0.3322 0.9432 -0.0068
vn -0.6150 0.7885 0.0000
vn 0.0733 -0.9973 0.0000
vn -0.7730 0.6344 0.0000
vn -0.8819 0.4714 0.0000
vn -0.9569 0.2903 0.0000
vn -0.9985 0.0540 -0.0068
vn -0.9639 -0.2664 -0.0000
vn -0.8602 -0.5098 -0.0068
vn -0.6534 -0.7570 0.0000
vn -0.4714 -0.8819 0.0000
vn 0.0000 0.0000 -1.0000
vn -0.2478 -0.9688 -0.0068
vn 0.0000 -0.0000 1.0000
vn 0.2903 -0.9569 0.0000
vn 0.5996 -0.8002 0.0109
vn -0.3140 0.9494 0.0000
vn -0.5997 0.8002 0.0068
vn 0.0540 -0.9985 0.0068
vn -0.9973 0.0733 0.0000
vn -0.9688 -0.2478 0.0068
vn -0.8699 -0.4932 -0.0000
vn -0.6679 -0.7443 0.0068
vn -0.2664 -0.9639 0.0000
usemtl None
s off
f 2/1/1 5/2/1 4/3/1
f 7/4/2 6/5/2 8/6/2
f 5/2/3 6/5/3 4/3/3
f 7/4/4 10/7/4 9/8/4
f 9/8/5 12/9/5 11/10/5
f 11/10/6 14/11/6 13/12/6
f 13/12/7 16/13/7 15/14/7
f 15/14/8 18/15/8 17/16/8
f 17/16/9 20/17/9 19/18/9
f 19/18/10 22/19/10 21/20/10
f 21/20/11 24/21/11 23/22/11
f 23/22/12 26/23/12 25/24/12
f 25/24/13 28/25/13 27/26/13
f 27/26/14 30/27/14 29/28/14
f 29/28/15 32/29/15 31/30/15
f 31/30/16 34/31/16 33/32/16
f 35/33/17 34/31/17 36/34/17
f 37/35/18 36/34/18 38/36/18
f 2/1/19 1/37/19 3/38/19
f 37/35/20 40/39/20 39/40/20
f 39/40/21 42/41/21 41/42/21
f 41/42/22 44/43/22 43/44/22
f 45/45/23 44/43/23 46/46/23
f 47/47/24 46/46/24 48/48/24
f 49/49/25 48/48/25 50/50/25
f 51/51/26 50/50/26 52/52/26
f 51/51/27 54/53/27 53/54/27
f 34/55/28 18/56/28 3/57/28
f 55/58/29 54/53/29 1/59/29
f 2/60/30 23/61/30 39/62/30
f 2/1/31 3/38/31 5/2/31
f 7/4/32 4/3/32 6/5/32
f 7/4/4 8/6/4 10/7/4
f 9/8/5 10/7/5 12/9/5
f 11/10/6 12/9/6 14/11/6
f 13/12/7 14/11/7 16/13/7
f 15/14/8 16/13/8 18/15/8
f 17/16/9 18/15/9 20/17/9
f 19/18/10 20/17/10 22/19/10
f 21/20/11 22/19/11 24/21/11
f 23/22/12 24/21/12 26/23/12
f 25/24/13 26/23/13 28/25/13
f 27/26/14 28/25/14 30/27/14
f 29/28/15 30/27/15 32/29/15
f 31/30/16 32/29/16 34/31/16
f 35/33/33 33/32/33 34/31/33
f 37/35/34 35/33/34 36/34/34
f 2/1/35 55/63/35 1/37/35
f 37/35/20 38/36/20 40/39/20
f 39/40/21 40/39/21 42/41/21
f 41/42/22 42/41/22 44/43/22
f 45/45/36 43/44/36 44/43/36
f 47/47/37 45/45/37 46/46/37
f 49/49/38 47/47/38 48/48/38
f 51/51/39 49/49/39 50/50/39
f 51/51/27 52/52/27 54/53/27
f 50/64/28 48/65/28 52/66/28
f 48/65/28 46/67/28 44/68/28
f 42/69/28 48/65/28 44/68/28
f 42/69/28 40/70/28 34/55/28
f 40/70/28 38/71/28 34/55/28
f 38/71/28 36/72/28 34/55/28
f 34/55/28 32/73/28 30/74/28
f 30/74/28 28/75/28 26/76/28
f 26/76/28 24/77/28 22/78/28
f 22/78/28 20/79/28 26/76/28
f 20/79/28 18/56/28 26/76/28
f 18/56/28 16/80/28 14/81/28
f 14/81/28 12/82/28 18/56/28
f 12/82/28 10/83/28 18/56/28
f 10/83/28 8/84/28 6/85/28
f 6/85/28 5/86/28 3/57/28
f 3/57/28 1/87/28 54/88/28
f 54/88/28 52/66/28 48/65/28
f 48/65/28 42/69/28 54/88/28
f 34/55/28 30/74/28 26/76/28
f 10/83/28 6/85/28 3/57/28
f 3/57/28 54/88/28 34/55/28
f 34/55/28 54/88/28 42/69/28
f 34/55/28 26/76/28 18/56/28
f 18/56/28 10/83/28 3/57/28
f 55/58/40 53/54/40 54/53/40
f 11/89/30 13/90/30 15/91/30
f 15/91/30 17/92/30 19/93/30
f 19/93/30 21/94/30 23/61/30
f 23/61/30 25/95/30 27/96/30
f 27/96/30 29/97/30 23/61/30
f 29/97/30 31/98/30 23/61/30
f 31/98/30 33/99/30 39/62/30
f 33/99/30 35/100/30 37/101/30
f 39/62/30 33/99/30 37/101/30
f 39/62/30 41/102/30 43/103/30
f 43/103/30 45/104/30 47/105/30
f 47/105/30 49/106/30 51/107/30
f 51/107/30 53/108/30 2/60/30
f 53/108/30 55/109/30 2/60/30
f 2/60/30 4/110/30 7/111/30
f 9/112/30 2/60/30 7/111/30
f 9/112/30 11/89/30 23/61/30
f 11/89/30 15/91/30 23/61/30
f 15/91/30 19/93/30 23/61/30
f 39/62/30 43/103/30 47/105/30
f 47/105/30 51/107/30 2/60/30
f 2/60/30 9/112/30 23/61/30
f 23/61/30 31/98/30 39/62/30
f 39/62/30 47/105/30 2/60/30
