# Blender v2.91.2 OBJ File: ''
# www.blender.org
mtllib spherev2.mtl
o Sphere.002
v 0.386549 0.774082 -0.497378
v 0.768875 0.460304 -0.747865
v 0.543462 0.312277 -0.860372
v 0.294086 0.879697 -0.171436
v 0.754915 0.814366 -0.309114
v 0.899509 -0.164272 -0.797770
v 0.401789 -0.110934 -0.915708
v 0.976375 0.580088 -0.497463
v 1.085812 0.270068 -0.622773
v 1.290062 -0.104027 -0.428266
v 1.278595 -0.447224 -0.087871
v 0.981341 -0.501667 -0.585780
v 1.167931 0.580090 -0.134013
v 1.272384 0.263612 -0.359442
v 0.589829 0.906134 0.027338
v 0.873141 0.822971 0.111769
v 1.370835 0.195757 0.017487
v 1.376728 -0.028787 0.167137
v 0.706209 -0.856577 -0.252345
v 0.817046 -0.818473 0.253280
v 0.540617 -0.893049 0.163018
v 1.122869 0.593280 0.243861
v 1.251474 -0.211073 0.442367
v 1.020045 -0.579675 0.460489
v 1.070849 -0.686783 -0.131663
v 1.176887 0.258531 0.542395
v 0.861073 0.597215 0.587864
v 0.812248 0.267587 0.804698
v 0.607618 0.797897 0.421857
v 0.647852 -0.278161 0.856431
v 0.570049 -0.660396 0.636893
v 0.465618 0.099739 0.913070
v 1.015483 -0.169291 0.731146
v 0.291040 -0.815050 0.370743
v 0.295989 0.689185 0.573245
v 0.321449 0.873171 0.211526
v 0.475488 0.440543 0.800374
v 0.056547 0.401660 0.721533
v 0.341285 -0.350535 0.838461
v 0.317030 -0.591295 0.679634
v 0.038308 -0.082291 0.798654
v -0.105119 -0.501755 0.524058
v 0.019261 0.777909 0.216579
v 0.208090 -0.870610 0.048374
v -0.305863 0.409770 0.272415
v -0.127146 -0.685599 0.146789
v -0.289715 -0.023169 0.521390
v -0.424617 0.026502 0.191057
v -0.385926 -0.327022 -0.062045
v -0.213514 -0.585213 -0.135363
v -0.410923 0.132532 -0.198652
v -0.205149 0.608828 -0.009857
v -0.274975 0.432943 -0.306555
v -0.327926 -0.089527 -0.427567
v 0.016999 0.669810 -0.447014
v -0.120994 -0.458497 -0.533520
v 0.115029 -0.739670 -0.419055
v 0.344208 -0.897101 -0.145406
v -0.140071 0.194843 -0.656316
v -0.022003 -0.096085 -0.764263
v 0.392467 -0.423592 -0.818594
v 0.235415 0.357873 -0.811296
v 0.539552 -0.682316 -0.607198
vt 0.778880 0.811412
vt 0.694844 0.661953
vt 0.742721 0.609589
vt 0.820067 0.929238
vt 0.636908 0.847478
vt 0.671875 0.444675
vt 0.761899 0.464693
vt 0.624729 0.717498
vt 0.625844 0.593527
vt 0.577216 0.466857
vt 0.516597 0.343625
vt 0.633507 0.317234
vt 0.531041 0.717325
vt 0.565531 0.590170
vt 0.481405 0.950362
vt 0.454773 0.845641
vt 0.499631 0.571783
vt 0.469345 0.485610
vt 0.631036 0.124196
vt 0.393518 0.157942
vt 0.312213 0.062500
vt 0.443200 0.726295
vt 0.422440 0.427916
vt 0.388510 0.282339
vt 0.533197 0.235202
vt 0.397216 0.585319
vt 0.340464 0.718637
vt 0.312653 0.593374
vt 0.293551 0.837866
vt 0.283555 0.404734
vt 0.278019 0.241385
vt 0.249927 0.532309
vt 0.350262 0.440638
vt 0.177384 0.147938
vt 0.200908 0.768801
vt 0.145480 0.909002
vt 0.251504 0.658097
vt 0.167888 0.636712
vt 0.226846 0.377513
vt 0.213522 0.275682
vt 0.171188 0.472499
vt 0.122168 0.318250
vt 0.069617 0.813963
vt 0.045443 0.093756
vt 0.055622 0.651475
vt 0.038354 0.235572
vt 0.096549 0.491108
vt 0.031241 0.512040
vt 0.007589 0.411764
vt 0.143527 0.955877
vt 0.117188 1.095703
vt 0.062500 0.941406
vt 0.000000 0.312500
vt 0.000000 0.562500
vt 0.991746 0.715496
vt 0.937739 0.656002
vt 1.000000 0.625000
vt 0.965382 0.545816
vt 0.922041 0.466254
vt 0.982064 0.393568
vt 0.876708 0.913613
vt 0.881454 0.749874
vt 0.994347 0.847446
vt 0.967111 0.279954
vt 0.883061 0.340106
vt 0.861088 0.213161
vt 0.993402 0.221488
vt 0.981675 0.093756
vt 0.815294 0.067867
vt 0.868466 0.568995
vt 0.841724 0.469595
vt 0.765386 0.346578
vt 0.796431 0.624954
vt 0.735292 0.232348
vt 0.878661 0.940957
vt 0.534139 0.956221
vt 0.627142 0.863103
vt 0.782786 0.819224
vt 0.007638 0.730773
vt 0.139621 0.914861
vt 0.005859 0.964844
vt 1.000000 0.500000
vt 0.484375 0.000000
vt 0.140625 0.000000
vn -0.0637 0.8205 -0.5681
vn 0.3058 0.5006 -0.8098
vn 0.0911 0.3242 -0.9416
vn -0.2435 0.9465 -0.2120
vn 0.3126 0.8798 -0.3581
vn 0.4515 -0.1598 -0.8778
vn -0.0652 -0.0945 -0.9934
vn 0.5411 0.6580 -0.5237
vn 0.6563 0.2592 -0.7086
vn 0.8280 -0.2376 -0.5080
vn 0.8791 -0.4706 -0.0754
vn 0.5440 -0.5500 -0.6337
vn 0.7568 0.6369 -0.1468
vn 0.8753 0.3021 -0.3777
vn 0.1159 0.9931 0.0197
vn 0.4486 0.8856 0.1198
vn 0.8912 0.4507 -0.0502
vn 0.9352 0.0777 -0.3454
vn 0.9975 0.0696 -0.0108
vn 0.9838 -0.0511 0.1718
vn 0.2804 -0.9013 -0.3302
vn 0.3833 -0.8836 0.2689
vn 0.0980 -0.9611 0.2583
vn 0.7310 0.6261 0.2712
vn 0.8529 -0.2507 0.4580
vn 0.6067 -0.6208 0.4965
vn 0.6434 -0.7539 -0.1327
vn 0.7259 0.4632 0.5084
vn 0.8781 0.3895 0.2779
vn 0.7827 0.0961 0.6149
vn 0.4111 0.6523 0.6367
vn 0.3920 0.4643 0.7942
vn 0.1450 0.8667 0.4773
vn 0.2303 -0.2931 0.9279
vn 0.1499 -0.7165 0.6813
vn 0.3564 0.1162 0.9271
vn -0.0133 0.0955 0.9953
vn 0.5607 -0.1853 0.8070
vn -0.2079 -0.8855 0.4154
vn -0.1969 0.7542 0.6265
vn -0.0141 0.9876 0.1562
vn 0.0508 0.6263 0.7779
vn -0.5205 0.5657 0.6396
vn -0.1764 -0.3619 0.9154
vn -0.2211 -0.6458 0.7308
vn -0.4762 -0.0843 0.8753
vn -0.7222 -0.3361 0.6045
vn -0.2414 0.9283 0.2829
vn -0.5053 0.8299 0.2363
vn -0.3957 -0.9172 0.0467
vn -0.8209 0.4492 0.3526
vn -0.5499 -0.6700 0.4987
vn -0.6678 -0.7137 0.2117
vn -0.8232 -0.0395 0.5664
vn -0.9790 -0.0028 0.2037
vn -0.9757 -0.2073 0.0707
vn -0.1053 0.9941 0.0245
vn -0.8618 -0.5060 -0.0360
vn -0.8413 -0.5223 -0.1391
vn -0.9569 0.2870 0.0445
vn -0.7387 0.6731 -0.0367
vn -0.8235 0.4625 -0.3285
vn -0.9679 -0.0169 -0.2509
vn -0.8951 0.0235 -0.4453
vn -0.5029 0.7195 -0.4790
vn -0.8245 -0.4550 -0.3364
vn -0.5623 -0.7980 -0.2167
vn -0.5102 -0.6986 -0.5017
vn -0.5185 -0.8433 -0.1413
vn -0.2547 -0.9137 -0.3167
vn -0.2272 -0.9142 -0.3357
vn -0.9154 0.3329 -0.2264
vn -0.6670 0.2331 -0.7077
vn -0.8079 -0.3090 -0.5018
vn -0.6152 -0.4878 -0.6194
vn -0.8504 -0.3693 -0.3749
vn -0.6060 0.0487 -0.7940
vn -0.4774 -0.2099 -0.8532
vn -0.0895 -0.4769 -0.8744
vn -0.2748 0.4023 -0.8733
vn 0.0794 -0.7513 -0.6551
vn -0.2142 -0.6882 -0.6932
vn -0.0542 0.3149 0.9476
vn -0.3929 0.2041 0.8966
vn -0.9149 0.4023 -0.0327
vn 0.0969 -0.9941 -0.0487
vn -0.0916 -0.9932 0.0714
usemtl None.003
s 1
f 1/1/1 2/2/2 3/3/3
f 4/4/4 5/5/5 1/1/1
f 3/3/3 6/6/6 7/7/7
f 1/1/1 8/8/8 2/2/2
f 8/8/8 9/9/9 2/2/2
f 6/6/6 9/9/9 10/10/10
f 10/10/10 11/11/11 12/12/12
f 5/5/5 13/13/13 8/8/8
f 8/8/8 14/14/14 9/9/9
f 15/15/15 16/16/16 5/5/5
f 13/13/13 17/17/17 14/14/14
f 10/10/18 17/17/19 18/18/20
f 19/19/21 20/20/22 21/21/23
f 16/16/16 22/22/24 13/13/13
f 11/11/11 23/23/25 24/24/26
f 11/11/11 24/24/26 25/25/27
f 22/22/24 26/26/28 17/17/29
f 18/18/20 23/23/25 11/11/11
f 26/26/30 23/23/25 18/18/20
f 16/16/16 27/27/31 22/22/24
f 27/27/31 28/28/32 26/26/28
f 15/15/15 29/29/33 16/16/16
f 24/24/26 30/30/34 31/31/35
f 28/28/36 32/32/37 33/33/38
f 31/31/35 34/34/39 20/20/22
f 27/27/31 29/29/33 35/35/40
f 15/15/15 36/36/41 29/29/33
f 37/37/42 35/35/40 38/38/43
f 32/32/37 39/39/44 30/30/34
f 40/40/45 34/34/39 31/31/35
f 41/41/46 42/42/47 39/39/44
f 36/36/48 43/43/49 35/35/40
f 34/34/39 44/44/50 21/21/23
f 38/38/43 43/43/49 45/45/51
f 42/42/52 46/46/53 34/34/39
f 34/34/39 46/46/53 44/44/50
f 47/47/54 45/45/51 48/48/55
f 47/47/54 49/49/56 42/42/47
f 36/50/41 15/51/15 4/52/57
f 46/46/53 49/49/58 50/53/59
f 48/48/55 45/45/51 51/54/60
f 52/55/61 53/56/62 45/57/51
f 51/58/63 54/59/64 49/60/56
f 4/61/4 55/62/65 43/63/49
f 50/64/59 49/60/58 56/65/66
f 50/64/67 57/66/68 46/67/69
f 44/68/50 57/66/70 58/69/71
f 51/58/72 53/56/62 59/70/73
f 54/59/74 56/65/75 49/60/76
f 56/65/75 57/66/68 50/64/67
f 54/59/64 59/70/73 60/71/77
f 4/61/4 1/1/1 55/62/65
f 60/71/78 61/72/79 56/65/75
f 55/62/65 62/73/80 59/70/73
f 62/73/80 7/7/7 60/71/78
f 61/72/79 63/74/81 57/66/82
f 62/73/80 1/1/1 3/3/3
f 57/66/70 19/19/21 58/69/71
f 4/75/4 15/76/15 5/77/5
f 61/72/79 7/7/7 6/6/6
f 61/72/79 6/6/6 12/12/12
f 63/74/81 61/72/79 12/12/12
f 3/3/3 2/2/2 6/6/6
f 63/74/81 12/12/12 19/19/21
f 2/2/2 9/9/9 6/6/6
f 1/78/1 5/5/5 8/8/8
f 6/6/6 10/10/10 12/12/12
f 10/10/18 9/9/9 14/14/14
f 19/19/21 12/12/12 25/25/27
f 25/25/27 12/12/12 11/11/11
f 8/8/8 13/13/13 14/14/14
f 14/14/14 17/17/19 10/10/18
f 13/13/13 5/5/5 16/16/16
f 19/19/21 25/25/27 20/20/22
f 10/10/10 18/18/20 11/11/11
f 13/13/13 22/22/24 17/17/17
f 25/25/27 24/24/26 20/20/22
f 18/18/20 17/17/19 26/26/30
f 22/22/24 27/27/31 26/26/28
f 23/23/25 26/26/30 33/33/38
f 23/23/25 33/33/38 24/24/26
f 27/27/31 16/16/16 29/29/33
f 26/26/30 28/28/36 33/33/38
f 20/20/22 24/24/26 31/31/35
f 24/24/26 33/33/38 30/30/34
f 33/33/38 32/32/37 30/30/34
f 27/27/31 37/37/42 28/28/32
f 32/32/37 28/28/36 37/37/83
f 21/21/23 20/20/22 34/34/39
f 31/31/35 30/30/34 39/39/44
f 31/31/35 39/39/44 40/40/45
f 27/27/31 35/35/40 37/37/42
f 29/29/33 36/36/48 35/35/40
f 32/32/37 37/37/83 38/38/84
f 32/32/37 38/38/84 41/41/46
f 39/39/44 32/32/37 41/41/46
f 40/40/45 39/39/44 42/42/52
f 34/34/39 40/40/45 42/42/52
f 41/41/46 38/38/84 47/47/54
f 41/41/46 47/47/54 42/42/47
f 38/38/43 35/35/40 43/43/49
f 47/47/54 38/38/43 45/45/51
f 45/45/51 43/43/49 52/79/61
f 47/47/54 48/48/55 49/49/56
f 46/46/53 42/42/52 49/49/58
f 43/43/49 36/80/48 4/81/4
f 51/58/72 45/57/85 53/56/62
f 49/60/56 48/82/55 51/58/63
f 52/55/61 43/63/49 55/62/65
f 52/55/61 55/62/65 53/56/62
f 44/68/50 46/67/53 57/66/70
f 51/58/63 59/70/73 54/59/64
f 54/59/74 60/71/78 56/65/75
f 53/56/62 55/62/65 59/70/73
f 60/71/78 7/7/7 61/72/79
f 56/65/75 61/72/79 57/66/68
f 59/70/73 62/73/80 60/71/77
f 62/73/80 55/62/65 1/1/1
f 57/66/70 63/74/81 19/19/21
f 7/7/7 62/73/80 3/3/3
s 2
f 58/83/86 19/19/86 21/21/86
s 3
f 58/84/87 21/21/87 44/44/87
