# Blender v2.91.2 OBJ File: ''
# www.blender.org
mtllib stairs.mtl
o Cube.004
v 0.250672 -0.999998 -3.230000
v -1.449328 -1.000000 3.230000
v 0.250672 -1.000000 3.230000
v -1.449328 -0.999998 -3.230000
v -1.449328 -3.000000 -3.230000
v -1.449328 -3.000000 3.229998
v 0.250672 -3.000000 -3.230000
v 0.250672 -3.000000 3.229998
vt 0.875000 0.500000
vt 0.625000 0.750000
vt 0.625000 0.500000
vt 0.875000 0.750000
vt 0.375000 1.000000
vt 0.375000 0.750000
vt 0.625000 1.000000
vt 0.625000 0.000000
vt 0.375000 0.250000
vt 0.375000 0.000000
vt 0.625000 0.250000
vt 0.375000 0.500000
vt 0.125000 0.750000
vt 0.125000 0.500000
vn 0.0000 1.0000 0.0000
vn -1.0000 -0.0000 0.0000
vn 0.0000 0.0000 -1.0000
vn 0.0000 -1.0000 -0.0000
vn 0.0000 -0.0000 1.0000
vn 1.0000 -0.0000 0.0000
usemtl Material.003
s 1
f 1/1/1 2/2/1 3/3/1
f 1/1/1 4/4/1 2/2/1
f 2/2/2 5/5/2 6/6/2
f 2/2/2 4/7/2 5/5/2
f 4/8/3 7/9/3 5/10/3
f 4/8/3 1/11/3 7/9/3
f 8/12/4 5/13/4 7/14/4
f 8/12/4 6/6/4 5/13/4
f 3/3/5 6/6/5 8/12/5
f 3/3/5 2/2/5 6/6/5
f 1/11/6 8/12/6 7/9/6
f 1/11/6 3/3/6 8/12/6
o Cube.001_Cube.002
v 1.250000 -1.500000 -3.230000
v 0.250000 -1.500000 3.230000
v 1.250000 -1.500000 3.230000
v 0.250000 -1.500000 -3.230000
v 0.250000 -3.500000 -3.230005
v 0.250000 -3.500000 3.229995
v 1.250000 -3.500000 -3.230005
v 1.250000 -3.500000 3.229995
vt 0.875000 0.500000
vt 0.625000 0.750000
vt 0.625000 0.500000
vt 0.875000 0.750000
vt 0.375000 1.000000
vt 0.375000 0.750000
vt 0.625000 1.000000
vt 0.625000 0.000000
vt 0.375000 0.250000
vt 0.375000 0.000000
vt 0.625000 0.250000
vt 0.375000 0.500000
vt 0.125000 0.750000
vt 0.125000 0.500000
vn 0.0000 1.0000 0.0000
vn -1.0000 0.0000 0.0000
vn 0.0000 0.0000 -1.0000
vn 0.0000 -1.0000 -0.0000
vn 0.0000 -0.0000 1.0000
vn 1.0000 -0.0000 0.0000
usemtl Material.003
s 1
f 9/15/7 10/16/7 11/17/7
f 9/15/7 12/18/7 10/16/7
f 10/16/8 13/19/8 14/20/8
f 10/16/8 12/21/8 13/19/8
f 12/22/9 15/23/9 13/24/9
f 12/22/9 9/25/9 15/23/9
f 16/26/10 13/27/10 15/28/10
f 16/26/10 14/20/10 13/27/10
f 11/17/11 14/20/11 16/26/11
f 11/17/11 10/16/11 14/20/11
f 9/25/12 16/26/12 15/23/12
f 9/25/12 11/17/12 16/26/12
o Cube.002_Cube.002
v 2.250000 -2.000000 -3.230000
v 1.250000 -2.000000 3.230000
v 2.250000 -2.000000 3.230000
v 1.250000 -2.000000 -3.230000
v 1.250000 -4.000000 -3.230005
v 1.250000 -4.000000 3.229995
v 2.250000 -4.000000 -3.230005
v 2.250000 -4.000000 3.229995
vt 0.875000 0.500000
vt 0.625000 0.750000
vt 0.625000 0.500000
vt 0.875000 0.750000
vt 0.375000 1.000000
vt 0.375000 0.750000
vt 0.625000 1.000000
vt 0.625000 0.000000
vt 0.375000 0.250000
vt 0.375000 0.000000
vt 0.625000 0.250000
vt 0.375000 0.500000
vt 0.125000 0.750000
vt 0.125000 0.500000
vn 0.0000 1.0000 0.0000
vn -1.0000 0.0000 0.0000
vn 0.0000 0.0000 -1.0000
vn 0.0000 -1.0000 -0.0000
vn 0.0000 -0.0000 1.0000
vn 1.0000 -0.0000 0.0000
usemtl Material.003
s 1
f 17/29/13 18/30/13 19/31/13
f 17/29/13 20/32/13 18/30/13
f 18/30/14 21/33/14 22/34/14
f 18/30/14 20/35/14 21/33/14
f 20/36/15 23/37/15 21/38/15
f 20/36/15 17/39/15 23/37/15
f 24/40/16 21/41/16 23/42/16
f 24/40/16 22/34/16 21/41/16
f 19/31/17 22/34/17 24/40/17
f 19/31/17 18/30/17 22/34/17
f 17/39/18 24/40/18 23/37/18
f 17/39/18 19/31/18 24/40/18
o Cube.003_Cube.002
v 10.382351 -2.500000 -3.230000
v 2.248911 -2.500000 3.230000
v 10.382351 -2.500000 3.230000
v 2.248911 -2.500000 -3.230000
v 2.248911 -4.500000 -3.230005
v 2.248911 -4.500000 3.229995
v 10.382351 -4.500000 -3.230005
v 10.382351 -4.500000 3.229995
vt 0.875000 0.500000
vt 0.625000 0.750000
vt 0.625000 0.500000
vt 0.875000 0.750000
vt 0.375000 1.000000
vt 0.375000 0.750000
vt 0.625000 1.000000
vt 0.625000 0.000000
vt 0.375000 0.250000
vt 0.375000 0.000000
vt 0.625000 0.250000
vt 0.375000 0.500000
vt 0.125000 0.750000
vt 0.125000 0.500000
vn 0.0000 1.0000 0.0000
vn -1.0000 0.0000 0.0000
vn 0.0000 0.0000 -1.0000
vn 0.0000 -1.0000 -0.0000
vn 0.0000 -0.0000 1.0000
vn 1.0000 -0.0000 0.0000
usemtl Material.003
s 1
f 25/43/19 26/44/19 27/45/19
f 25/43/19 28/46/19 26/44/19
f 26/44/20 29/47/20 30/48/20
f 26/44/20 28/49/20 29/47/20
f 28/50/21 31/51/21 29/52/21
f 28/50/21 25/53/21 31/51/21
f 32/54/22 29/55/22 31/56/22
f 32/54/22 30/48/22 29/55/22
f 27/45/23 30/48/23 32/54/23
f 27/45/23 26/44/23 30/48/23
f 25/53/24 32/54/24 31/51/24
f 25/53/24 27/45/24 32/54/24
