# Blender v2.91.2 OBJ File: ''
# www.blender.org
mtllib tea.mtl
o Teapot_Node_Teapot
v 0.176768 0.508529 0.512322
v 0.127771 0.551213 0.515013
v -0.074427 0.509763 0.406164
v -0.112921 0.550737 0.390650
v -0.252303 0.508763 0.165920
v -0.282233 0.553599 0.099486
v -0.256258 0.549009 -0.154590
v -0.196252 0.504053 -0.290143
v -0.115062 0.545472 -0.409224
v 0.061765 0.509260 -0.486621
v 0.112297 0.549126 -0.504466
v 0.348362 0.508340 -0.501582
v 0.354149 0.521903 -0.538346
v 0.550509 0.549336 -0.432266
v 0.665004 0.509087 -0.316187
v 0.739415 0.550827 -0.173789
v 0.754586 0.508530 0.065496
v 0.759156 0.551163 0.110788
v 0.638059 0.550351 0.349682
v 0.558451 0.509087 0.422741
v 0.416052 0.550828 0.497152
v 0.097900 0.141966 0.697596
v 0.002183 -0.130847 0.692242
v -0.229821 0.141407 0.536032
v -0.307966 -0.130805 0.485654
v -0.431132 0.141750 0.234392
v -0.474483 -0.130867 0.149130
v -0.455333 0.141965 -0.144363
v -0.449978 -0.130847 -0.240081
v -0.293769 0.141407 -0.472085
v -0.243391 -0.130805 -0.550230
v 0.007872 0.141750 -0.673396
v 0.093133 -0.130867 -0.716746
v 0.386626 0.141966 -0.697596
v 0.482344 -0.130847 -0.692242
v 0.714348 0.141408 -0.536032
v 0.792493 -0.130805 -0.485654
v 0.915659 0.141750 -0.234392
v 0.959010 -0.130867 -0.149130
v 0.939860 0.141966 0.144363
v 0.934505 -0.130847 0.240081
v 0.778296 0.141408 0.472085
v 0.727918 -0.130805 0.550230
v 0.476655 0.141750 0.673396
v 0.391394 -0.130867 0.716746
v 0.061405 -0.319867 0.517805
v -0.170439 -0.319839 0.362638
v -0.271519 -0.347109 0.118270
v -0.275541 -0.319867 -0.180859
v -0.123795 -0.342232 -0.387348
v 0.140602 -0.354499 -0.509868
v 0.423122 -0.319867 -0.517805
v 0.654966 -0.319839 -0.362638
v 0.756046 -0.347109 -0.118270
v 0.760068 -0.319867 0.180859
v 0.608323 -0.342232 0.387348
v 0.342209 -0.353303 0.511404
v 0.176766 0.376439 -0.581322
v 0.200501 0.342799 -0.989826
v 0.158226 0.412730 -1.011018
v 0.192905 0.452691 -0.549026
v 0.238385 0.209979 -1.104085
v 0.341374 0.421063 -0.563101
v 0.322208 0.390213 -1.049807
v 0.293279 0.349973 -0.976070
v 0.192886 -0.047499 -0.728574
v 0.173131 0.061552 -0.904761
v 0.160512 0.072395 -0.997829
v 0.180177 -0.146489 -0.697204
v 0.319640 0.057798 -0.979743
v 0.313388 -0.129312 -0.701072
v 0.290424 0.141233 -0.945695
v 0.288006 -0.047992 -0.731222
v 0.119306 0.133179 0.621421
v 0.329294 0.197584 0.832447
v 0.261572 0.461323 0.933003
v 0.235255 0.533351 1.025054
v 0.135973 0.236413 0.867281
v 0.081175 0.022596 0.887602
v 0.213615 -0.162529 0.617477
v 0.188198 0.411367 1.052614
v 0.236371 0.538689 1.266938
v 0.410324 0.017778 0.874225
v 0.300555 0.411822 1.044689
v 0.431265 0.029801 0.619997
v 0.307591 0.535022 1.119279
v 0.180368 0.537077 1.156319
v 0.226609 0.514355 1.163662
v 0.265728 0.511689 1.157779
v 0.243336 0.505088 1.021431
v 0.096506 0.760158 0.050634
v 0.204890 0.619755 0.042270
v 0.191629 0.760158 -0.145758
v 0.199994 0.619755 -0.037373
v 0.388021 0.760158 -0.050634
v 0.279637 0.619755 -0.042270
v 0.284533 0.619755 0.037373
v 0.292809 0.764019 0.146339
v 0.138755 0.519556 0.485860
v -0.076624 0.511012 0.362844
v -0.224947 0.524438 0.195860
v -0.243597 0.519556 -0.103508
v -0.120581 0.511012 -0.318887
v 0.046403 0.524438 -0.467210
v 0.345772 0.519556 -0.485860
v 0.561151 0.511012 -0.362844
v 0.709474 0.524438 -0.195860
v 0.728124 0.519556 0.103508
v 0.605108 0.511012 0.318887
v 0.438124 0.524438 0.467210
vt 1.902983 2.000021
vt 1.580174 2.000010
vt 1.846261 1.933873
vt 1.514923 1.915980
vt 1.201657 2.000016
vt 1.116340 1.909330
vt 0.826901 1.935668
vt 0.638555 1.996715
vt 0.456151 1.904473
vt 0.221514 1.999980
vt 0.161005 1.895692
vt 0.000000 2.000000
vt 2.000000 1.954547
vt 1.870655 2.000013
vt 1.616679 1.925066
vt 1.874593 1.899923
vt 1.405517 2.000009
vt 1.231174 1.926086
vt 0.919665 2.000021
vt 0.893218 1.915204
vt 0.564179 1.916906
vt 0.405518 2.000009
vt 0.231174 1.926086
vt 0.040579 2.000029
vt 0.019398 1.928563
vt 1.791588 0.879007
vt 2.000000 0.879065
vt 1.874352 1.297546
vt 1.541619 1.297759
vt 1.457937 0.879003
vt 1.208001 1.297624
vt 1.125243 0.879065
vt 0.874352 1.297546
vt 0.791588 0.879007
vt 0.541620 1.297759
vt 0.457937 0.879003
vt 0.208002 1.297625
vt 0.125243 0.879065
vt 0.000000 1.899839
vt 0.000000 1.297446
vt 1.791588 0.879007
vt 2.000000 0.879065
vt 1.874352 1.297546
vt 1.541620 1.297759
vt 1.457937 0.879003
vt 1.208001 1.297625
vt 1.125243 0.879065
vt 0.874352 1.297547
vt 0.791588 0.879007
vt 0.541620 1.297760
vt 0.457937 0.879003
vt 0.208002 1.297625
vt 0.125243 0.879065
vt 0.000000 1.297446
vt 1.792165 0.363424
vt 1.978777 0.328242
vt 1.458543 0.363503
vt 1.152246 0.328966
vt 0.792165 0.363424
vt 0.489812 0.333067
vt 0.152149 0.328261
vt 1.792165 0.363424
vt 1.978553 0.328151
vt 1.458543 0.363503
vt 1.152246 0.328966
vt 0.792165 0.363424
vt 0.489812 0.333067
vt 0.137458 0.328312
vt 0.654397 0.656984
vt 0.898753 0.591418
vt 0.857481 1.000006
vt 0.596024 1.000019
vt 0.388827 0.594155
vt 0.497260 0.425668
vt 0.274899 1.000016
vt 0.107556 0.606236
vt 0.022563 1.000007
vt 0.007316 0.790185
vt 0.978694 0.263749
vt 0.849338 0.195785
vt 0.899030 0.001098
vt 0.651882 0.269086
vt 0.618204 0.000073
vt 0.372645 0.254112
vt 0.368167 0.001711
vt 0.057604 0.276673
vt 0.086495 0.000988
vt 0.023636 0.061577
vt 0.000000 0.536870
vt 0.415015 0.301998
vt 0.603277 0.352043
vt 0.459735 0.748730
vt 0.624055 0.006492
vt 0.495021 0.950482
vt 0.793913 0.922820
vt 0.850834 0.247511
vt 0.945060 0.000043
vt 0.899104 0.721950
vt 0.967891 0.920829
vt 1.000000 0.238069
vt 0.000000 0.391955
vt 0.159125 0.229513
vt 0.118193 0.718689
vt 0.000000 0.712897
vt 0.017589 0.952982
vt 0.257282 0.911307
vt 0.063848 0.000085
vt 0.261833 0.009196
vt 0.494687 0.999872
vt 0.947807 0.999870
vt 0.078890 0.999964
vt 0.000000 1.000007
vt 0.936243 0.649093
vt 0.612085 0.657056
vt 0.768355 0.116861
vt 0.131325 0.657056
vt 0.328948 0.936668
vt 0.268355 0.116861
vt 0.000000 0.916667
vt 0.120098 0.643572
vt 0.000000 0.116562
vt 0.934712 0.706965
vt 0.612085 0.657056
vt 0.768355 0.116861
vt 0.268355 0.116861
vt 0.000000 0.116562
vt 0.938559 -0.014835
vt 1.000000 0.425157
vt 0.771096 0.985674
vt 0.618339 0.046897
vt 0.771479 0.007876
vt 0.271097 0.985674
vt 0.438559 -0.014836
vt 0.118339 0.046897
vt 0.271479 0.007876
vt 0.000000 0.704842
vt 0.938559 -0.014836
vt 1.000000 0.425150
vt 0.771097 0.985674
vt 0.618339 0.046897
vt 0.771479 0.007876
vt 0.271096 0.985674
vt 0.438559 -0.014836
vt 0.118339 0.046897
vt 0.271479 0.007876
vt 0.000000 0.704837
vn 0.0291 0.1691 -0.9852
vn 0.5554 0.2273 -0.7999
vn 0.0709 0.9895 0.1262
vn -0.0318 0.9911 0.1292
vn 0.9124 0.0421 -0.4072
vn -0.1879 0.9668 0.1730
vn -0.1843 0.9679 -0.1707
vn 0.8667 -0.0503 0.4962
vn -0.3359 0.9063 -0.2565
vn 0.4803 -0.2380 0.8442
vn -0.0789 0.9966 -0.0223
vn -0.1425 -0.5438 0.8270
vn 0.2265 0.9618 -0.1540
vn 0.1295 0.6693 -0.7316
vn -0.7718 -0.2791 0.5714
vn 0.2000 0.9694 -0.1422
vn -0.9711 0.2335 -0.0500
vn 0.1708 0.9809 -0.0926
vn 0.0755 0.9697 0.2324
vn -0.5770 -0.1249 -0.8071
vn 0.1197 0.9717 0.2038
vn -0.3067 -0.3318 0.8921
vn 0.1814 -0.3274 0.9273
vn -0.1846 0.2476 0.9511
vn -0.6360 0.2480 0.7307
vn -0.7102 -0.3299 0.6219
vn -0.9155 0.2418 0.3216
vn -0.9282 -0.3261 0.1791
vn -0.9517 0.2407 -0.1905
vn -0.8940 -0.3290 -0.3043
vn -0.7370 0.2377 -0.6327
vn -0.6194 -0.3258 -0.7142
vn -0.3100 0.2407 -0.9197
vn -0.1808 -0.3270 -0.9276
vn 0.1841 0.2409 -0.9529
vn 0.3065 -0.3318 -0.8922
vn 0.6407 0.2516 -0.7254
vn 0.7103 -0.3299 -0.6218
vn 0.9136 0.2538 -0.3178
vn 0.9282 -0.3261 -0.1791
vn 0.9512 0.2472 0.1847
vn 0.8940 -0.3290 0.3042
vn 0.7302 0.2485 0.6364
vn 0.6193 -0.3260 0.7143
vn 0.3149 0.2496 0.9157
vn -0.1863 -0.8520 0.4893
vn 0.0740 -0.8968 0.4362
vn -0.3709 -0.8570 0.3576
vn -0.4377 -0.8938 0.0974
vn -0.5291 -0.8318 -0.1678
vn -0.3299 -0.8821 -0.3361
vn -0.0744 -0.8975 -0.4347
vn 0.1869 -0.8513 -0.4903
vn 0.3708 -0.8571 -0.3576
vn 0.4378 -0.8938 -0.0970
vn 0.5291 -0.8318 0.1678
vn 0.3275 -0.8832 0.3356
vn -0.7265 0.5899 -0.3526
vn -0.5157 -0.3618 0.7767
vn -0.7674 -0.6299 0.1201
vn -0.4066 0.9123 -0.0484
vn 0.6651 0.5361 -0.5199
vn -0.0423 -0.1504 -0.9877
vn 0.9375 0.3475 -0.0185
vn 0.6989 -0.5261 0.4845
vn 0.5918 0.3224 0.7388
vn -0.7930 0.4157 0.4454
vn -0.7157 0.5158 0.4710
vn -0.7463 -0.4569 -0.4840
vn -0.3441 -0.7721 -0.5343
vn 0.7834 -0.4674 -0.4097
vn 0.4579 -0.7295 -0.5081
vn 0.6552 0.5816 0.4821
vn 0.6269 0.6245 -0.4659
vn -0.7493 0.5385 -0.3855
vn 0.1931 0.6416 -0.7423
vn -0.7122 0.5393 -0.4494
vn -0.1325 0.9832 -0.1254
vn -0.6749 0.6957 0.2461
vn -0.7369 -0.4372 0.5157
vn -0.1621 -0.9611 0.2236
vn -0.2902 -0.6101 0.7372
vn 0.0269 0.3323 0.9428
vn 0.7500 -0.3854 0.5376
vn -0.0845 -0.5598 0.8243
vn 0.6076 0.7578 0.2379
vn 0.9682 0.0766 -0.2380
vn -0.0526 0.4267 0.9029
vn 0.3122 0.9377 -0.1527
vn -0.4423 0.8573 -0.2633
vn 0.3008 0.3827 0.8735
vn -0.8824 0.3639 0.2983
vn -0.5245 0.5792 0.6241
vn -0.3044 0.3605 -0.8817
vn -0.6234 0.5772 -0.5275
vn 0.8811 0.3599 -0.3067
vn 0.5275 0.5772 -0.6233
vn 0.6194 0.5803 0.5288
vn -0.0695 0.9751 0.2108
vn 0.0981 0.9779 0.1848
vn -0.1847 0.9779 0.0980
vn -0.1589 0.9617 0.2235
vn -0.2109 0.9750 -0.0697
vn -0.0980 0.9779 -0.1847
vn -0.2235 0.9617 -0.1589
vn 0.0697 0.9750 -0.2109
vn 0.1847 0.9779 -0.0980
vn 0.1589 0.9617 -0.2235
vn 0.2109 0.9750 0.0697
vn 0.2235 0.9617 0.1589
usemtl Material.004
s 1
f 1/1/1 3/2/2 2/3/3
f 4/4/4 2/3/3 3/2/2
f 3/2/2 5/5/5 4/4/4
f 6/6/6 4/4/4 5/5/5
f 7/7/7 6/6/6 5/5/5
f 5/5/5 8/8/8 7/7/7
f 9/9/9 7/7/7 8/8/8
f 8/8/8 10/10/10 11/11/11
f 11/11/11 9/9/9 8/8/8
f 10/10/10 12/12/12 11/11/11
f 11/13/11 12/14/12 14/15/13
f 11/13/11 14/15/13 13/16/14
f 12/14/12 15/17/15 14/15/13
f 16/18/16 14/15/13 15/17/15
f 15/17/15 17/19/17 16/18/16
f 18/20/18 16/18/16 17/19/17
f 19/21/19 18/20/18 17/19/17
f 17/19/17 20/22/20 19/21/19
f 21/23/21 19/21/19 20/22/20
f 20/22/20 1/24/1 21/23/21
f 2/25/3 21/23/21 1/24/1
f 23/26/22 45/27/23 22/28/24
f 2/3/3 4/4/4 24/29/25
f 24/29/25 22/28/24 2/3/3
f 22/28/24 24/29/25 23/26/22
f 25/30/26 23/26/22 24/29/25
f 4/4/4 6/6/6 26/31/27
f 26/31/27 24/29/25 4/4/4
f 24/29/25 26/31/27 25/30/26
f 27/32/28 25/30/26 26/31/27
f 28/33/29 26/31/27 6/6/6
f 26/31/27 28/33/29 27/32/28
f 29/34/30 27/32/28 28/33/29
f 6/6/6 7/7/7 28/33/29
f 7/7/7 9/9/9 30/35/31
f 30/35/31 28/33/29 7/7/7
f 28/33/29 30/35/31 29/34/30
f 31/36/32 29/34/30 30/35/31
f 32/37/33 30/35/31 9/9/9
f 30/35/31 32/37/33 31/36/32
f 33/38/34 31/36/32 32/37/33
f 9/9/9 11/11/11 32/37/33
f 11/11/11 13/39/14 34/40/35
f 34/40/35 32/37/33 11/11/11
f 32/37/33 34/40/35 33/38/34
f 35/41/36 33/42/34 34/43/35
f 13/16/14 14/15/13 36/44/37
f 36/44/37 34/43/35 13/16/14
f 34/43/35 36/44/37 35/41/36
f 37/45/38 35/41/36 36/44/37
f 14/15/13 16/18/16 38/46/39
f 38/46/39 36/44/37 14/15/13
f 36/44/37 38/46/39 37/45/38
f 39/47/40 37/45/38 38/46/39
f 16/18/16 18/20/18 40/48/41
f 40/48/41 38/46/39 16/18/16
f 38/46/39 40/48/41 39/47/40
f 41/49/42 39/47/40 40/48/41
f 18/20/18 19/21/19 42/50/43
f 42/50/43 40/48/41 18/20/18
f 40/48/41 42/50/43 41/49/42
f 43/51/44 41/49/42 42/50/43
f 19/21/19 21/23/21 44/52/45
f 44/52/45 42/50/43 19/21/19
f 42/50/43 44/52/45 43/51/44
f 45/53/23 43/51/44 44/52/45
f 21/23/21 2/25/3 22/54/24
f 22/54/24 44/52/45 21/23/21
f 44/52/45 22/54/24 45/53/23
f 45/27/23 23/26/22 46/55/46
f 46/55/46 57/56/47 45/27/23
f 23/26/22 25/30/26 47/57/48
f 47/57/48 46/55/46 23/26/22
f 25/30/26 27/32/28 48/58/49
f 48/58/49 47/57/48 25/30/26
f 27/32/28 29/34/30 49/59/50
f 49/59/50 48/58/49 27/32/28
f 29/34/30 31/36/32 50/60/51
f 50/60/51 49/59/50 29/34/30
f 31/36/32 33/38/34 51/61/52
f 51/61/52 50/60/51 31/36/32
f 33/42/34 35/41/36 52/62/53
f 52/62/53 51/63/52 33/42/34
f 35/41/36 37/45/38 53/64/54
f 53/64/54 52/62/53 35/41/36
f 37/45/38 39/47/40 54/65/55
f 54/65/55 53/64/54 37/45/38
f 39/47/40 41/49/42 55/66/56
f 55/66/56 54/65/55 39/47/40
f 41/49/42 43/51/44 56/67/57
f 56/67/57 55/66/56 41/49/42
f 43/51/44 45/53/23 57/68/47
f 57/68/47 56/67/57 43/51/44
f 46/55/46 47/57/48 48/58/49
f 48/58/49 57/56/47 46/55/46
f 48/58/49 49/59/50 50/60/51
f 51/61/52 57/56/47 48/58/49
f 48/58/49 50/60/51 51/61/52
f 52/62/53 53/64/54 54/65/55
f 54/65/55 51/63/52 52/62/53
f 54/65/55 55/66/56 56/67/57
f 57/68/47 51/63/52 54/65/55
f 54/65/55 56/67/57 57/68/47
s 2
f 60/69/58 59/70/59 58/71/60
f 61/72/61 60/69/58 58/71/60
f 60/69/58 64/73/62 62/74/63
f 61/72/61 63/75/64 60/69/58
f 64/73/62 60/69/58 63/75/64
f 64/73/62 63/75/64 65/76/65
f 63/75/64 58/77/60 59/78/59
f 59/78/59 65/76/65 63/75/64
f 72/79/66 59/70/59 67/80/67
f 67/80/67 66/81/68 72/79/66
f 68/82/69 59/70/59 60/69/58
f 68/82/69 67/80/67 59/70/59
f 69/83/70 66/81/68 67/80/67
f 67/80/67 68/82/69 69/83/70
f 62/74/63 68/82/69 60/69/58
f 70/84/71 68/82/69 62/74/63
f 68/82/69 70/84/71 71/85/72
f 71/85/72 69/83/70 68/82/69
f 62/74/63 64/73/62 70/84/71
f 70/84/71 64/73/62 72/86/66
f 70/84/71 72/86/66 73/87/73
f 73/87/73 71/85/72 70/84/71
f 72/86/66 64/73/62 65/76/65
f 73/87/73 72/86/66 66/88/68
f 65/76/65 59/89/59 72/86/66
s 3
f 75/90/74 78/91/75 76/92/76
f 75/90/74 74/93/77 78/91/75
f 76/92/76 78/91/75 77/94/78
f 87/95/79 77/94/78 78/91/75
f 79/96/80 78/91/75 74/93/77
f 74/93/77 80/97/81 79/96/80
f 81/98/82 78/91/75 79/96/80
f 78/91/75 81/98/82 87/95/79
f 82/99/83 87/95/79 81/98/82
f 79/96/80 80/97/81 83/100/84
f 79/101/80 83/102/84 84/103/85
f 84/103/85 81/104/82 79/101/80
f 81/104/82 84/103/85 82/105/83
f 86/106/86 82/105/83 84/103/85
f 80/107/81 85/108/87 83/102/84
f 86/106/86 84/103/85 83/102/84
f 75/90/74 83/102/84 85/108/87
f 83/102/84 75/90/74 76/92/76
f 76/92/76 86/106/86 83/102/84
f 85/108/87 74/93/77 75/90/74
f 77/94/78 86/106/86 76/92/76
f 77/94/78 87/95/79 90/109/88
f 88/110/89 90/109/88 87/95/79
f 87/95/79 82/99/83 88/110/89
f 89/111/90 88/112/89 82/105/83
f 82/105/83 86/106/86 89/111/90
f 90/109/88 89/111/90 86/106/86
f 77/94/78 90/109/88 86/106/86
s 4
f 98/113/91 91/114/92 92/115/93
f 93/116/94 91/114/92 98/117/91
f 94/118/95 92/115/93 91/114/92
f 91/114/92 93/116/94 94/118/95
f 95/119/96 93/116/94 98/120/91
f 96/121/97 94/118/95 93/116/94
f 93/122/94 95/123/96 96/124/97
f 97/125/98 96/124/97 95/123/96
f 95/123/96 98/120/91 97/125/98
f 92/126/93 97/125/98 98/120/91
f 99/127/99 110/128/100 92/129/93
f 99/127/99 101/130/101 100/131/102
f 101/130/101 99/127/99 92/129/93
f 92/129/93 94/132/95 101/130/101
f 102/133/103 101/130/101 94/132/95
f 102/133/103 104/134/104 103/135/105
f 104/134/104 102/133/103 94/132/95
f 94/132/95 96/136/97 104/134/104
f 105/137/106 104/138/104 96/139/97
f 105/137/106 107/140/107 106/141/108
f 107/140/107 105/137/106 96/139/97
f 96/139/97 97/142/98 107/140/107
f 108/143/109 107/140/107 97/142/98
f 108/143/109 110/144/100 109/145/110
f 110/144/100 108/143/109 97/142/98
f 97/142/98 92/146/93 110/144/100
